#!OML:ASF F:\VICON\USERDATA\INSTALL\rory3\rory3.ASF
:FULLY-SPECIFIED
:DEGREES
317
root 1.18197 17.825 26.5489 -3.35077 -9.32151 -2.39453
lowerback 7.87356 3.24224 4.20449
upperback 0.186857 4.72077 0.62333
thorax -3.92754 2.26697 -2.22003
lowerneck -16.8512 -2.79047 -1.19103
upperneck 19.2747 -3.6689 0.539849
head 8.84546 -1.75263 -0.0772808
rclavicle 4.27226e-014 -3.37934e-015
rhumerus -31.7195 -14.2126 -79.604
rradius 27.3164
rwrist 4.54217
rhand -13.8413 17.804
rfingers 7.12502
rthumb 12.2821 -11.8154
lclavicle 4.27226e-014 -3.37934e-015
lhumerus -40.2379 5.44614 80.504
lradius 24.6836
lwrist -1.13175
lhand -19.5396 30.9475
lfingers 7.12502
lthumb 6.7843 60.8188
rfemur 4.92989 5.87508 24.9023
rtibia 53.4519
rfoot 11.3653 2.21818
rtoes -6.84923
lfemur -21.3822 -0.341173 -18.5967
ltibia 28.958
lfoot -4.4333 -2.7407
ltoes -15.9927
318
root 1.20012 17.8455 26.7238 -3.49164 -9.44814 -2.05258
lowerback 8.0098 3.26233 3.90117
upperback 0.235449 4.72069 0.516824
thorax -3.96819 2.2713 -2.16954
lowerneck -16.673 -2.72453 -1.09957
upperneck 18.9645 -3.60627 0.571401
head 8.70554 -1.71561 -0.0685167
rclavicle 1.71939e-014 -5.56597e-015
rhumerus -31.7162 -14.454 -79.6052
rradius 26.986
rwrist 4.6452
rhand -14.2002 18.0844
rfingers 7.12502
rthumb 11.936 -11.5553
lclavicle 1.71939e-014 -5.56597e-015
lhumerus -40.108 4.73972 80.7698
lradius 25.4522
lwrist 0.0786
lhand -17.352 31.8671
lfingers 7.12502
lthumb 8.89566 61.6596
rfemur 3.32689 6.03386 24.4171
rtibia 56.1388
rfoot 14.1222 1.73871
rtoes -3.90931
lfemur -20.5391 -0.11865 -19.1482
ltibia 28.6871
lfoot -4.67485 -2.70803
ltoes -16.7335
319
root 1.21491 17.8676 26.8971 -3.66763 -9.25721 -1.20529
lowerback 7.98843 3.17995 3.04917
upperback 0.357209 4.51967 0.279816
thorax -3.88757 2.18893 -1.91523
lowerneck -16.644 -2.66734 -1.02157
upperneck 18.7292 -3.5462 0.579668
head 8.61832 -1.68222 -0.0687266
rclavicle -6.7249e-015 -5.26779e-015
rhumerus -31.5104 -14.5218 -79.7349
rradius 26.6406
rwrist 4.69974
rhand -14.2355 17.8048
rfingers 7.12502
rthumb 11.902 -11.8369
lclavicle -6.7249e-015 -5.26779e-015
lhumerus -39.7429 4.12725 81.0439
lradius 25.5828
lwrist 0.803817
lhand -17.383 31.5144
lfingers 7.12502
lthumb 8.86575 61.3082
rfemur 1.71395 5.74099 23.3001
rtibia 58.7305
rfoot 15.9404 1.35731
rtoes -2.4054
lfemur -19.684 -0.239908 -20.2638
ltibia 28.3583
lfoot -4.98167 -2.53868
ltoes -16.7112
320
root 1.23221 17.8867 27.0721 -3.78018 -8.815 -0.525626
lowerback 7.96286 2.95928 2.36877
upperback 0.432357 4.15756 0.162711
thorax -3.85298 2.02192 -1.61629
lowerneck -16.6329 -2.5956 -1.15124
upperneck 18.5945 -3.40074 0.53079
head 8.57092 -1.62898 -0.0448622
rclavicle 4.8571e-014 4.57205e-015
rhumerus -31.4892 -14.0544 -79.9289
rradius 26.6499
rwrist 4.11935
rhand -13.755 18.2032
rfingers 7.12502
rthumb 12.3653 -11.4111
lclavicle 4.8571e-014 4.57205e-015
lhumerus -39.6237 3.62538 81.4693
lradius 25.361
lwrist 0.13017
lhand -21.4531 28.4656
lfingers 7.12502
lthumb 4.93689 58.3881
rfemur 0.206617 5.12722 22.3495
rtibia 61.137
rfoot 16.4546 0.593389
rtoes -2.09613
lfemur -18.8454 -0.507609 -21.2334
ltibia 28.0018
lfoot -5.3278 -2.49911
ltoes -15.5958
321
root 1.23917 17.9019 27.2409 -3.87409 -8.51077 -0.207544
lowerback 8.16611 2.76799 1.8776
upperback 0.371511 3.86495 0.177429
thorax -4.07553 1.88155 -1.31081
lowerneck -16.7015 -2.49613 -1.34045
upperneck 18.8024 -3.23478 0.616605
head 8.65753 -1.5542 0.0329664
rclavicle 7.95876e-014 5.76476e-015
rhumerus -31.7942 -13.5661 -80.0739
rradius 26.8045
rwrist 3.58367
rhand -13.6084 19.1183
rfingers 7.12502
rthumb 12.5066 -10.4874
lclavicle 7.95876e-014 5.76476e-015
lhumerus -39.6526 3.09815 81.7242
lradius 25.6051
lwrist -1.21224
lhand -22.5214 30.1971
lfingers 7.12502
lthumb 3.90524 60.1411
rfemur -1.2888 4.67454 21.9484
rtibia 63.3847
rfoot 15.7921 -0.515866
rtoes -1.60318
lfemur -18.1256 -0.528586 -21.758
ltibia 27.6862
lfoot -5.58588 -2.65089
ltoes -15.0806
322
root 1.24282 17.9207 27.4055 -3.82719 -8.35688 0.0782885
lowerback 8.16506 2.67402 1.36448
upperback 0.346348 3.69423 0.211027
thorax -4.1413 1.80591 -0.972309
lowerneck -16.7551 -2.43749 -1.16021
upperneck 18.8419 -3.12895 0.28877
head 8.6706 -1.5264 -0.0951972
rclavicle -1.91237e-014 -1.45113e-014
rhumerus -31.919 -13.552 -80.0261
rradius 26.6535
rwrist 3.74859
rhand -13.8714 19.0871
rfingers 7.12502
rthumb 12.2531 -10.534
lclavicle -1.91237e-014 -1.45113e-014
lhumerus -39.5171 2.44375 82.1569
lradius 25.6559
lwrist 0.11312
lhand -24.4298 27.3253
lfingers 7.12502
lthumb 2.06228 57.2951
rfemur -3.04883 4.23711 21.556
rtibia 65.4932
rfoot 14.4748 -1.11307
rtoes -2.61065
lfemur -17.5343 -0.518149 -22.2091
ltibia 27.4726
lfoot -5.99646 -2.6346
ltoes -14.8645
323
root 1.24829 17.9382 27.5706 -3.92657 -8.14254 0.47891
lowerback 8.23722 2.58732 0.853224
upperback 0.410934 3.52905 0.15681
thorax -4.14576 1.73338 -0.726425
lowerneck -16.6997 -2.41582 -0.997589
upperneck 18.652 -3.10113 0.109026
head 8.58983 -1.52172 -0.176789
rclavicle 3.49457e-014 -1.17283e-014
rhumerus -31.9084 -13.9137 -79.9155
rradius 26.6029
rwrist 4.8253
rhand -13.8401 17.8297
rfingers 7.12502
rthumb 12.2832 -11.7896
lclavicle 3.49457e-014 -1.17283e-014
lhumerus -39.2984 2.20448 82.1615
lradius 26.2985
lwrist -0.550328
lhand -22.2886 30.6
lfingers 7.12502
lthumb 4.13009 60.5397
rfemur -4.5335 3.72383 21.025
rtibia 67.4153
rfoot 13.054 -1.26276
rtoes -2.67721
lfemur -16.6928 -0.551664 -22.821
ltibia 27.3027
lfoot -6.7421 -2.51929
ltoes -15.0652
324
root 1.25543 17.9547 27.745 -4.1867 -7.7483 0.811157
lowerback 8.42641 2.39992 0.441481
upperback 0.460396 3.2412 0.144336
thorax -4.2268 1.59771 -0.483979
lowerneck -16.4731 -2.34693 -1.15984
upperneck 18.5785 -3.00486 0.287513
head 8.52955 -1.47005 -0.0748687
rclavicle -3.31831e-014 1.07344e-014
rhumerus -31.99 -14.2958 -79.7209
rradius 26.598
rwrist 6.09048
rhand -13.7296 17.2283
rfingers 7.12502
rthumb 12.3898 -12.3845
lclavicle -3.31831e-014 1.07344e-014
lhumerus -39.4194 1.38244 82.7266
lradius 26.5458
lwrist 1.93869
lhand -24.2425 27.9335
lfingers 7.12502
lthumb 2.24319 57.9014
rfemur -5.67663 3.10997 20.5748
rtibia 69.1017
rfoot 11.3844 -1.50967
rtoes -0.476824
lfemur -15.6742 -0.757329 -23.3765
ltibia 27.1479
lfoot -7.42996 -2.4089
ltoes -14.755
325
root 1.2641 17.9689 27.9134 -4.32001 -7.46967 0.976069
lowerback 8.41741 2.21751 0.181166
upperback 0.620616 2.97417 0.180775
thorax -4.07266 1.47152 -0.264621
lowerneck -16.6993 -2.28279 -1.32017
upperneck 18.6865 -2.90215 0.423544
head 8.61091 -1.41746 0.00625669
rclavicle -2.4522e-015 9.54166e-015
rhumerus -31.7456 -14.4994 -79.7107
rradius 26.0892
rwrist 5.98986
rhand -14.1806 18.7179
rfingers 7.12502
rthumb 11.955 -10.9208
lclavicle -2.4522e-015 9.54166e-015
lhumerus -39.0743 1.09307 82.8866
lradius 26.7002
lwrist 2.39101
lhand -24.2601 27.3425
lfingers 7.12502
lthumb 2.22618 57.3106
rfemur -7.01591 2.62788 20.3324
rtibia 70.585
rfoot 9.34053 -2.04008
rtoes 1.62247
lfemur -14.8758 -0.922042 -23.7229
ltibia 27.0441
lfoot -7.89595 -2.23745
ltoes -14.5888
326
root 1.274 17.9777 28.0699 -4.30528 -7.13377 0.959311
lowerback 8.36403 2.01939 0.140646
upperback 0.707033 2.70925 0.25467
thorax -3.95936 1.34206 -0.130309
lowerneck -16.7516 -2.24971 -1.36307
upperneck 18.7791 -2.83919 0.394695
head 8.65149 -1.39366 0.0100768
rclavicle -1.9015e-014 1.41137e-014
rhumerus -31.6629 -14.4997 -79.7135
rradius 26.2439
rwrist 6.61639
rhand -14.054 18.5343
rfingers 7.12502
rthumb 12.077 -11.0972
lclavicle -1.9015e-014 1.41137e-014
lhumerus -38.5803 1.07691 82.8362
lradius 26.8931
lwrist 2.03195
lhand -24.0798 28.1286
lfingers 7.12502
lthumb 2.40031 58.0949
rfemur -8.47482 2.02248 20.2911
rtibia 71.8762
rfoot 7.6583 -2.68438
rtoes 6.3764
lfemur -14.2629 -1.09651 -23.8543
ltibia 26.9513
lfoot -8.35113 -2.2294
ltoes -14.1245
327
root 1.27657 17.9876 28.2295 -4.27951 -6.83831 0.786722
lowerback 8.38285 1.83834 0.18517
upperback 0.662422 2.47755 0.364587
thorax -4.01944 1.2271 -0.0163099
lowerneck -16.4728 -2.22269 -1.38824
upperneck 18.8202 -2.81007 0.438598
head 8.61619 -1.37824 0.0355543
rclavicle 2.83983e-014 -5.76476e-015
rhumerus -31.9415 -14.5539 -79.6886
rradius 26.4873
rwrist 6.97411
rhand -14.084 18.7156
rfingers 7.12502
rthumb 12.0481 -10.9176
lclavicle 2.83983e-014 -5.76476e-015
lhumerus -38.3329 1.2676 82.5286
lradius 27.2719
lwrist 0.409742
lhand -21.6106 31.8541
lfingers 7.12502
lthumb 4.78481 61.7801
rfemur -9.85964 1.51888 20.5191
rtibia 72.9539
rfoot 6.83901 -3.49834
rtoes 5.21469
lfemur -13.6527 -1.00093 -23.7847
ltibia 26.8726
lfoot -8.87079 -2.42779
ltoes -14.6311
328
root 1.27665 17.9949 28.3892 -4.28324 -6.61545 0.958016
lowerback 8.45534 1.72205 -0.166517
upperback 0.597813 2.29071 0.375277
thorax -4.1413 1.14054 0.210067
lowerneck -16.2713 -2.239 -1.38079
upperneck 18.8367 -2.85788 0.528065
head 8.58726 -1.39161 0.0608578
rclavicle -8.22161e-015 3.18055e-015
rhumerus -32.1863 -14.5799 -79.7062
rradius 26.4138
rwrist 6.29146
rhand -14.5382 19.4875
rfingers 7.12502
rthumb 11.6101 -10.1709
lclavicle -8.22161e-015 3.18055e-015
lhumerus -38.2102 0.672631 82.7099
lradius 27.2036
lwrist 2.12568
lhand -23.6264 29.2666
lfingers 7.12502
lthumb 2.83819 59.2275
rfemur -11.3174 1.16062 20.3757
rtibia 73.9313
rfoot 5.60197 -4.17934
rtoes 3.19949
lfemur -13.0697 -1.03294 -24.0731
ltibia 26.8383
lfoot -9.32822 -2.38031
ltoes -14.4236
